<svg xmlns="http://www.w3.org/2000/svg" xmlns:xlink="http://www.w3.org/1999/xlink" width="100" height="100" viewBox="0 0 100 100"><g><g transform="translate(50 50) scale(0.69 0.69) rotate(0) translate(-50 -50)" style="fill:#17a2b8;"><svg fill="#17a2b8" xmlns="http://www.w3.org/2000/svg" xmlns:xlink="http://www.w3.org/1999/xlink" version="1.1" x="0px" y="0px" viewBox="0 0 512 512" enable-background="new 0 0 512 512" xml:space="preserve"><path d="M348.9,181.6v-18.6c0-51.2-41.7-92.9-92.9-92.9s-92.9,41.7-92.9,92.9v18.6H68.5l21.7,260.2h331.6l21.7-260.2H348.9z   M200.2,163.1c0-30.8,25-55.8,55.8-55.8s55.8,25,55.8,55.8v18.6H200.2V163.1z M387.6,404.7H124.4l-15.5-185.9h54.1v18.6h-18.6v37.2  h74.4v-37.2h-18.6v-18.6h111.5v18.6h-18.6v37.2h74.4v-37.2h-18.6v-18.6h54.1L387.6,404.7z"></path></svg></g></g></svg>