<svg xmlns="http://www.w3.org/2000/svg" xmlns:xlink="http://www.w3.org/1999/xlink" width="100" height="100" viewBox="0 0 100 100"><g><g transform="translate(50 50) scale(0.69 0.69) rotate(0) translate(-50 -50)" style="fill:#17a2b8;"><svg fill="#17a2b8" xmlns="http://www.w3.org/2000/svg" xmlns:xlink="http://www.w3.org/1999/xlink" viewBox="0 0 100 100" version="1.1" x="0px" y="0px"><title>Upload s27.4</title><desc>Created with Sketch.</desc><g stroke="none" stroke-width="1" fill="none" fill-rule="evenodd"><g fill="#17a2b8"><path d="M50,85 C30.6700338,85 15,69.3299662 15,50 C15,30.6700338 30.6700338,15 50,15 C69.3299662,15 85,30.6700338 85,50 C85,69.3299662 69.3299662,85 50,85 Z M47.0089466,76.8513493 L47.0089466,47.4862167 C47.0089466,46.3850916 46.3752882,46.1219034 45.5936309,46.90862 L40.1608066,52.3636635 C37.3408287,55.1917216 33.1098647,50.9486345 35.9298426,48.1205764 L47.8530305,35.8988363 C49.0132064,34.703755 50.8854039,34.7017585 52.0440897,35.8847054 L64.0700334,48.1205764 C66.8900113,50.9486345 62.6600445,55.1917216 59.8390694,52.3636635 L54.4069511,46.90862 C53.6256059,46.1220556 52.9919266,46.3805022 52.9919266,47.4862167 L52.9919266,76.8512709 C52.9919266,78.5031355 54.3189452,79.6538727 55.9559056,79.4086379 C55.9559056,79.4086379 55.032696,79.5972059 56.0275394,79.3942876 C69.7072582,76.6040336 80,64.5040161 80,50 C80,33.4314575 66.5685425,20 50,20 C33.4314575,20 20,33.4314575 20,50 C20,64.5201618 30.3156701,76.6309698 44.0181575,79.4035712 C44.9985939,79.6019556 44.0413236,79.4082303 44.0413236,79.4082303 C45.6721897,79.6730092 47.0089466,78.5089833 47.0089466,76.8513493 Z" transform="translate(50.000000, 50.000000) rotate(-270.000000) translate(-50.000000, -50.000000) "></path></g></g></svg></g></g></svg>